<!-- Generated by readme-aura https://github.com/collectioneur/readme-aura -->
<svg width="215" height="70" viewBox="0 0 215 70" xmlns="http://www.w3.org/2000/svg"><defs><clipPath id="satori_bc-id"><path x="0" y="0" width="215" height="70" d="M0,0 h191 a24,24 0 0 1 24,24 v22 a24,24 0 0 1 -24,24 h-191 a0,0 0 0 1 0,0 v-70 a0,0 0 0 1 0,0"/></clipPath></defs><clipPath id="satori_cp-id"><path x="0" y="0" width="215" height="70" d="M0,0 h191 a24,24 0 0 1 24,24 v22 a24,24 0 0 1 -24,24 h-191 a0,0 0 0 1 0,0 v-70 a0,0 0 0 1 0,0"/></clipPath><mask id="satori_om-id"><rect x="1" y="1" width="213" height="68" fill="#fff"/><path width="215" height="70" fill="none" stroke="#000" stroke-width="2" d="M0,0 A0,0 0 0 1 0,0 h191 a24,24 0 0 1 24,24 v22 a24,24 0 0 1 -24,24 h-191 a0,0 0 0 1 0,0 v-70 A0,0 0 0 1 0,0"/></mask><path x="0" y="0" width="215" height="70" fill="#08080c" d="M0,0 h191 a24,24 0 0 1 24,24 v22 a24,24 0 0 1 -24,24 h-191 a0,0 0 0 1 0,0 v-70 a0,0 0 0 1 0,0"/><path width="215" height="70" clip-path="url(#satori_bc-id)" fill="none" stroke="rgba(255,255,255,0.08)" stroke-width="2" d="M0,0 A0,0 0 0 1 0,0 h191 a24,24 0 0 1 24,24 v22 a24,24 0 0 1 -24,24 h-191 a0,0 0 0 1 0,0 v-70 A0,0 0 0 1 0,0"/><defs><pattern id="satori_pattern_id-0_0" x="0" y="0" width="1" height="1" patternUnits="objectBoundingBox"><radialGradient id="satori_radial_id-0_0" spreadMethod="pad"><stop offset="0" stop-color="rgba(6, 182, 212, 0.12)"/><stop offset="0.7" stop-color="transparent"/><stop offset="1" stop-color="transparent"/></radialGradient><mask id="satori_mask_id-0_0"><rect x="0" y="0" width="213" height="68" fill="#fff"/></mask><rect x="0" y="0" width="213" height="68" fill="transparent"/><circle cx="106.5" cy="34" width="213" height="68" r="111.79557236313073" fill="url(#satori_radial_id-0_0)" mask="url(#satori_mask_id-0_0)"/></pattern></defs><mask id="satori_om-id-0"><rect x="1" y="1" width="213" height="68" fill="#fff" mask="url(#satori_om-id)"/></mask><rect x="1" y="1" width="213" height="68" fill="url(#satori_pattern_id-0_0)" clip-path="url(#satori_cp-id)" mask="url(#satori_om-id)"/><defs><pattern id="satori_pattern_id-1_0" x="0" y="0" width="1" height="1" patternUnits="objectBoundingBox"><linearGradient id="satori_biid-1_0" x1="0" y1="0" x2="0" y2="1" spreadMethod="pad"><stop offset="0%" stop-color="rgba(255, 255, 255, 0.08)"/><stop offset="100%" stop-color="rgba(255, 255, 255, 0.02)"/></linearGradient><rect x="0" y="0" width="170" height="38" fill="url(#satori_biid-1_0)"/></pattern><clipPath id="satori_bc-id-1" clip-path="url(#satori_cp-id)"><path x="23" y="16" width="170" height="38" d="M42,16 h132 a19,19 0 0 1 19,19 v0 a19,19 0 0 1 -19,19 h-132 a19,19 0 0 1 -19,-19 v0 a19,19 0 0 1 19,-19"/></clipPath></defs><mask id="satori_om-id-1"><rect x="24" y="17" width="168" height="36" fill="#fff" mask="url(#satori_om-id)"/><path width="170" height="38" fill="none" stroke="#000" stroke-width="2" d="M28.564999999999998,21.564999999999998 A19,19 0 0 1 42,16 h132 a19,19 0 0 1 19,19 v0 a19,19 0 0 1 -19,19 h-132 a19,19 0 0 1 -19,-19 v0 A19,19 0 0 1 28.564999999999998,21.564999999999998"/></mask><path x="23" y="16" width="170" height="38" fill="url(#satori_pattern_id-1_0)" d="M42,16 h132 a19,19 0 0 1 19,19 v0 a19,19 0 0 1 -19,19 h-132 a19,19 0 0 1 -19,-19 v0 a19,19 0 0 1 19,-19" clip-path="url(#satori_cp-id)" mask="url(#satori_om-id)"/><path width="170" height="38" clip-path="url(#satori_bc-id-1)" fill="none" stroke="rgba(255, 255, 255, 0.12)" stroke-width="2" d="M28.564999999999998,21.564999999999998 A19,19 0 0 1 42,16 h132 a19,19 0 0 1 19,19 v0 a19,19 0 0 1 -19,19 h-132 a19,19 0 0 1 -19,-19 v0 A19,19 0 0 1 28.564999999999998,21.564999999999998"/><clipPath id="satori_cp-id-1-0" clip-path="url(#satori_cp-id)"><rect x="79" y="27" width="16" height="16"/></clipPath><mask id="satori_om-id-1-0"><rect x="79" y="27" width="16" height="16" fill="#fff" mask="url(#satori_om-id)"/></mask><svg x="79" y="27" width="16" height="16" preserveAspectRatio="none" clip-path="url(#satori_cp-id-1-0)" mask="url(#satori_om-id-1-0)"><path d="M4 4h16c1.1 0 2 .9 2 2v12c0 1.1-.9 2-2 2H4c-1.1 0-2-.9-2-2V6c0-1.1.9-2 2-2z"></path><polyline points="22,6 12,13 2,6"></polyline></svg><mask id="satori_om-id-1-0-0"><rect x="79" y="27" width="0" height="16" fill="#fff" mask="url(#satori_om-id)"/></mask><mask id="satori_om-id-1-0-1"><rect x="79" y="27" width="0" height="16" fill="#fff" mask="url(#satori_om-id)"/></mask><mask id="satori_om-id-1-1"><rect x="103" y="27" width="34" height="16" fill="#fff" mask="url(#satori_om-id)"/></mask><g mask="url(#satori_om-id)" clip-path="url(#satori_cp-id)"><path fill="#f0f0f5" d="M110.2 40L103.9 40L103.9 30.5L110.2 30.5L110.2 32.1L105.8 32.1L105.8 34.4L109.9 34.4L109.9 36.0L105.8 36.0L105.8 38.4L110.2 38.4L110.2 40ZM113.5 40L111.6 40L111.6 32.9L113.3 32.9L113.4 34.3Q113.6 33.9 113.8 33.6L113.8 33.6Q114.1 33.2 114.5 33.0Q115.0 32.8 115.4 32.8L115.4 32.8Q116.2 32.8 116.7 33.3L116.7 33.3Q117.1 33.7 117.3 34.4L117.3 34.4Q117.4 34.0 117.7 33.7L117.7 33.7Q118.0 33.2 118.5 33.0Q119.0 32.8 119.6 32.8L119.6 32.8Q120.2 32.8 120.7 33.1Q121.2 33.4 121.5 33.9Q121.8 34.4 121.8 35.2L121.8 35.2L121.8 40L119.9 40L119.9 35.6Q119.9 35.0 119.6 34.7Q119.3 34.4 118.8 34.4L118.8 34.4Q118.4 34.4 118.2 34.5Q117.9 34.7 117.8 35.0Q117.6 35.3 117.6 35.6L117.6 35.6L117.6 40L115.8 40L115.8 35.5Q115.8 35.0 115.5 34.7Q115.2 34.4 114.7 34.4L114.7 34.4Q114.3 34.4 114.1 34.5Q113.8 34.7 113.6 35.0Q113.5 35.3 113.5 35.7L113.5 35.7L113.5 40ZM125.3 40.1L125.3 40.1Q124.6 40.1 124.1 39.9Q123.5 39.7 123.2 39.2Q122.9 38.7 122.9 38.0L122.9 38.0Q122.9 37.4 123.2 37.0Q123.4 36.6 123.7 36.4Q124.1 36.1 124.6 36.0Q125.1 35.9 125.6 35.8L125.6 35.8Q126.2 35.8 126.6 35.7Q127.0 35.7 127.2 35.5Q127.3 35.4 127.3 35.2L127.3 35.2L127.3 35.2Q127.3 34.9 127.2 34.7Q127.1 34.4 126.8 34.3Q126.6 34.2 126.2 34.2L126.2 34.2Q125.9 34.2 125.6 34.3Q125.3 34.4 125.1 34.6Q125.0 34.8 124.9 35.0L124.9 35.0L123.1 34.8Q123.3 34.1 123.7 33.7Q124.2 33.3 124.8 33.0Q125.4 32.8 126.2 32.8L126.2 32.8Q126.8 32.8 127.3 33.0Q127.9 33.1 128.3 33.4Q128.7 33.7 129.0 34.1Q129.2 34.6 129.2 35.2L129.2 35.2L129.2 40L127.4 40L127.4 39.0L127.4 39.0Q127.2 39.3 126.9 39.6Q126.6 39.8 126.2 40.0Q125.8 40.1 125.3 40.1ZM125.8 38.8L125.8 38.8Q126.3 38.8 126.6 38.6Q127.0 38.4 127.2 38.1Q127.3 37.8 127.3 37.5L127.3 37.5L127.3 36.7Q127.3 36.8 127.1 36.8Q126.9 36.9 126.7 36.9Q126.5 36.9 126.3 37.0Q126.1 37.0 125.9 37.0L125.9 37.0Q125.6 37.1 125.3 37.2Q125.1 37.3 124.9 37.5Q124.8 37.7 124.8 38.0L124.8 38.0Q124.8 38.2 124.9 38.4Q125.0 38.6 125.3 38.7Q125.5 38.8 125.8 38.8ZM132.6 40L130.7 40L130.7 32.9L132.6 32.9L132.6 40ZM131.7 32.0L131.7 32.0Q131.3 32.0 130.9 31.7Q130.6 31.4 130.6 31.0L130.6 31.0Q130.6 30.6 130.9 30.3Q131.3 30.0 131.7 30.0L131.7 30.0Q132.1 30.0 132.4 30.3Q132.7 30.6 132.7 31.0L132.7 31.0Q132.7 31.4 132.4 31.7Q132.1 32.0 131.7 32.0ZM134.1 30.5L136.0 30.5L136.0 40L134.1 40L134.1 30.5Z "/></g></svg>