<!-- Generated by readme-aura https://github.com/collectioneur/readme-aura -->
<svg width="215" height="70" viewBox="0 0 215 70" xmlns="http://www.w3.org/2000/svg"><defs><clipPath id="satori_bc-id"><rect x="0" y="0" width="215" height="70"/></clipPath></defs><clipPath id="satori_cp-id"><rect x="0" y="0" width="215" height="70"/></clipPath><mask id="satori_om-id"><rect x="1" y="1" width="214" height="68" fill="#fff"/><path width="215" height="70" fill="none" stroke="#000" stroke-width="2" d="M0,0 A0,0 0 0 1 0,0 h215 A0,0 0 0 1 215,0"/><path width="215" height="70" fill="none" stroke="#000" stroke-width="2" d="M215,70 A0,0 0 0 1 215,70 h-215 a0,0 0 0 1 0,0 v-70 A0,0 0 0 1 0,0"/></mask><rect x="0" y="0" width="215" height="70" fill="#08080c"/><path width="215" height="70" clip-path="url(#satori_bc-id)" fill="none" stroke="rgba(255,255,255,0.08)" stroke-width="2" d="M0,0 A0,0 0 0 1 0,0 h215 A0,0 0 0 1 215,0"/><path width="215" height="70" clip-path="url(#satori_bc-id)" fill="none" stroke="rgba(255,255,255,0.08)" stroke-width="2" d="M215,70 A0,0 0 0 1 215,70 h-215 a0,0 0 0 1 0,0 v-70 A0,0 0 0 1 0,0"/><defs><pattern id="satori_pattern_id-0_0" x="0" y="0" width="1" height="1" patternUnits="objectBoundingBox"><radialGradient id="satori_radial_id-0_0" spreadMethod="pad"><stop offset="0" stop-color="rgba(168, 85, 247, 0.12)"/><stop offset="0.7" stop-color="transparent"/><stop offset="1" stop-color="transparent"/></radialGradient><mask id="satori_mask_id-0_0"><rect x="0" y="0" width="214" height="68" fill="#fff"/></mask><rect x="0" y="0" width="214" height="68" fill="transparent"/><circle cx="107" cy="34" width="214" height="68" r="112.27199116431488" fill="url(#satori_radial_id-0_0)" mask="url(#satori_mask_id-0_0)"/></pattern></defs><mask id="satori_om-id-0"><rect x="1" y="1" width="214" height="68" fill="#fff" mask="url(#satori_om-id)"/></mask><rect x="1" y="1" width="214" height="68" fill="url(#satori_pattern_id-0_0)" clip-path="url(#satori_cp-id)" mask="url(#satori_om-id)"/><defs><pattern id="satori_pattern_id-1_0" x="0" y="0" width="1" height="1" patternUnits="objectBoundingBox"><linearGradient id="satori_biid-1_0" x1="0" y1="0" x2="0" y2="1" spreadMethod="pad"><stop offset="0%" stop-color="rgba(255, 255, 255, 0.08)"/><stop offset="100%" stop-color="rgba(255, 255, 255, 0.02)"/></linearGradient><rect x="0" y="0" width="170" height="38" fill="url(#satori_biid-1_0)"/></pattern><clipPath id="satori_bc-id-1" clip-path="url(#satori_cp-id)"><path x="23" y="16" width="170" height="38" d="M42,16 h132 a19,19 0 0 1 19,19 v0 a19,19 0 0 1 -19,19 h-132 a19,19 0 0 1 -19,-19 v0 a19,19 0 0 1 19,-19"/></clipPath></defs><mask id="satori_om-id-1"><rect x="24" y="17" width="168" height="36" fill="#fff" mask="url(#satori_om-id)"/><path width="170" height="38" fill="none" stroke="#000" stroke-width="2" d="M28.564999999999998,21.564999999999998 A19,19 0 0 1 42,16 h132 a19,19 0 0 1 19,19 v0 a19,19 0 0 1 -19,19 h-132 a19,19 0 0 1 -19,-19 v0 A19,19 0 0 1 28.564999999999998,21.564999999999998"/></mask><path x="23" y="16" width="170" height="38" fill="url(#satori_pattern_id-1_0)" d="M42,16 h132 a19,19 0 0 1 19,19 v0 a19,19 0 0 1 -19,19 h-132 a19,19 0 0 1 -19,-19 v0 a19,19 0 0 1 19,-19" clip-path="url(#satori_cp-id)" mask="url(#satori_om-id)"/><path width="170" height="38" clip-path="url(#satori_bc-id-1)" fill="none" stroke="rgba(255, 255, 255, 0.12)" stroke-width="2" d="M28.564999999999998,21.564999999999998 A19,19 0 0 1 42,16 h132 a19,19 0 0 1 19,19 v0 a19,19 0 0 1 -19,19 h-132 a19,19 0 0 1 -19,-19 v0 A19,19 0 0 1 28.564999999999998,21.564999999999998"/><clipPath id="satori_cp-id-1-0" clip-path="url(#satori_cp-id)"><rect x="69" y="27" width="16" height="16"/></clipPath><mask id="satori_om-id-1-0"><rect x="69" y="27" width="16" height="16" fill="#fff" mask="url(#satori_om-id)"/></mask><svg x="69" y="27" width="16" height="16" preserveAspectRatio="none" clip-path="url(#satori_cp-id-1-0)" mask="url(#satori_om-id-1-0)"><circle cx="12" cy="12" r="10"></circle><line x1="2" y1="12" x2="22" y2="12"></line><path d="M12 2a15.3 15.3 0 0 1 4 10 15.3 15.3 0 0 1-4 10 15.3 15.3 0 0 1-4-10 15.3 15.3 0 0 1 4-10z"></path></svg><mask id="satori_om-id-1-0-0"><rect x="69" y="27" width="0" height="16" fill="#fff" mask="url(#satori_om-id)"/></mask><mask id="satori_om-id-1-0-1"><rect x="69" y="27" width="0" height="16" fill="#fff" mask="url(#satori_om-id)"/></mask><mask id="satori_om-id-1-0-2"><rect x="69" y="27" width="0" height="16" fill="#fff" mask="url(#satori_om-id)"/></mask><mask id="satori_om-id-1-1"><rect x="93" y="27" width="54" height="16" fill="#fff" mask="url(#satori_om-id)"/></mask><g mask="url(#satori_om-id)" clip-path="url(#satori_cp-id)"><path fill="#f0f0f5" d="M95.8 40L93.9 40L93.9 30.5L97.5 30.5Q98.6 30.5 99.4 31.0Q100.1 31.4 100.5 32.1Q100.9 32.8 100.9 33.7L100.9 33.7Q100.9 34.7 100.5 35.4Q100.1 36.1 99.4 36.5Q98.6 36.9 97.5 36.9L97.5 36.9L95.8 36.9L95.8 40ZM95.8 32.1L95.8 35.3L97.2 35.3Q97.8 35.3 98.2 35.1Q98.6 34.9 98.7 34.6Q98.9 34.2 98.9 33.7Q98.9 33.3 98.7 32.9Q98.6 32.5 98.2 32.3Q97.8 32.1 97.2 32.1L97.2 32.1L95.8 32.1ZM105.3 40.1L105.3 40.1Q104.2 40.1 103.4 39.7Q102.7 39.2 102.2 38.4Q101.8 37.6 101.8 36.5L101.8 36.5Q101.8 35.4 102.2 34.6Q102.7 33.7 103.4 33.3Q104.2 32.8 105.3 32.8L105.3 32.8Q106.4 32.8 107.1 33.3Q107.9 33.7 108.3 34.6Q108.8 35.4 108.8 36.5L108.8 36.5Q108.8 37.6 108.3 38.4Q107.9 39.2 107.1 39.7Q106.4 40.1 105.3 40.1ZM105.3 38.6L105.3 38.6Q105.8 38.6 106.1 38.4Q106.5 38.1 106.6 37.6Q106.8 37.1 106.8 36.5L106.8 36.5Q106.8 35.8 106.6 35.4Q106.5 34.9 106.1 34.6Q105.8 34.3 105.3 34.3L105.3 34.3Q104.8 34.3 104.4 34.6Q104.1 34.9 103.9 35.4Q103.7 35.8 103.7 36.5L103.7 36.5Q103.7 37.1 103.9 37.6Q104.1 38.1 104.4 38.4Q104.8 38.6 105.3 38.6ZM111.9 40L109.9 40L109.9 32.9L111.8 32.9L111.8 34.1L111.9 34.1Q112.1 33.5 112.5 33.1Q113.0 32.8 113.6 32.8L113.6 32.8Q113.7 32.8 113.9 32.8Q114.1 32.8 114.2 32.9L114.2 32.9L114.2 34.6Q114.1 34.5 113.8 34.5Q113.6 34.5 113.4 34.5L113.4 34.5Q112.9 34.5 112.6 34.7Q112.2 34.9 112.0 35.2Q111.9 35.5 111.9 36.0L111.9 36.0L111.9 40ZM117.3 32.9L118.6 32.9L118.6 34.4L117.3 34.4L117.3 37.9Q117.3 38.3 117.5 38.4Q117.6 38.6 118.0 38.6L118.0 38.6Q118.1 38.6 118.3 38.6Q118.5 38.5 118.6 38.5L118.6 38.5L118.8 39.9Q118.5 40.0 118.2 40.1Q117.9 40.1 117.6 40.1L117.6 40.1Q116.5 40.1 116.0 39.6Q115.4 39.1 115.4 38.1L115.4 38.1L115.4 34.4L114.4 34.4L114.4 32.9L115.4 32.9L115.4 31.2L117.3 31.2L117.3 32.9ZM122.2 32.9L123.7 32.9L123.7 34.4L122.2 34.4L122.2 40L120.3 40L120.3 34.4L119.1 34.4L119.1 32.9L120.3 32.9L120.3 32.4Q120.3 31.6 120.6 31.1Q120.9 30.6 121.4 30.3Q122.0 30.1 122.6 30.1L122.6 30.1Q123.1 30.1 123.4 30.2Q123.8 30.2 124.0 30.3L124.0 30.3L123.6 31.7Q123.5 31.7 123.4 31.7Q123.2 31.6 123.0 31.6L123.0 31.6Q122.6 31.6 122.4 31.8Q122.2 32.0 122.2 32.4L122.2 32.4L122.2 32.9ZM128.0 40.1L128.0 40.1Q126.9 40.1 126.1 39.7Q125.3 39.2 124.9 38.4Q124.5 37.6 124.5 36.5L124.5 36.5Q124.5 35.4 124.9 34.6Q125.3 33.7 126.1 33.3Q126.9 32.8 128.0 32.8L128.0 32.8Q129.0 32.8 129.8 33.3Q130.6 33.7 131.0 34.6Q131.4 35.4 131.4 36.5L131.4 36.5Q131.4 37.6 131.0 38.4Q130.6 39.2 129.8 39.7Q129.0 40.1 128.0 40.1ZM128.0 38.6L128.0 38.6Q128.5 38.6 128.8 38.4Q129.2 38.1 129.3 37.6Q129.5 37.1 129.5 36.5L129.5 36.5Q129.5 35.8 129.3 35.4Q129.2 34.9 128.8 34.6Q128.5 34.3 128.0 34.3L128.0 34.3Q127.5 34.3 127.1 34.6Q126.8 34.9 126.6 35.4Q126.4 35.8 126.4 36.5L126.4 36.5Q126.4 37.1 126.6 37.6Q126.8 38.1 127.1 38.4Q127.5 38.6 128.0 38.6ZM132.6 30.5L134.5 30.5L134.5 40L132.6 40L132.6 30.5ZM137.9 40L136.0 40L136.0 32.9L137.9 32.9L137.9 40ZM137.0 32.0L137.0 32.0Q136.5 32.0 136.2 31.7Q135.9 31.4 135.9 31.0L135.9 31.0Q135.9 30.6 136.2 30.3Q136.5 30.0 137.0 30.0L137.0 30.0Q137.4 30.0 137.7 30.3Q138.0 30.6 138.0 31.0L138.0 31.0Q138.0 31.4 137.7 31.7Q137.4 32.0 137.0 32.0ZM142.6 40.1L142.6 40.1Q141.5 40.1 140.7 39.7Q140.0 39.2 139.5 38.4Q139.1 37.6 139.1 36.5L139.1 36.5Q139.1 35.4 139.5 34.6Q140.0 33.7 140.7 33.3Q141.5 32.8 142.6 32.8L142.6 32.8Q143.7 32.8 144.4 33.3Q145.2 33.7 145.6 34.6Q146.1 35.4 146.1 36.5L146.1 36.5Q146.1 37.6 145.6 38.4Q145.2 39.2 144.4 39.7Q143.7 40.1 142.6 40.1ZM142.6 38.6L142.6 38.6Q143.1 38.6 143.4 38.4Q143.8 38.1 144.0 37.6Q144.1 37.1 144.1 36.5L144.1 36.5Q144.1 35.8 144.0 35.4Q143.8 34.9 143.4 34.6Q143.1 34.3 142.6 34.3L142.6 34.3Q142.1 34.3 141.7 34.6Q141.4 34.9 141.2 35.4Q141.1 35.8 141.1 36.5L141.1 36.5Q141.1 37.1 141.2 37.6Q141.4 38.1 141.7 38.4Q142.1 38.6 142.6 38.6Z "/></g></svg>