<!-- Generated by readme-aura https://github.com/collectioneur/readme-aura -->
<svg width="215" height="70" viewBox="0 0 215 70" xmlns="http://www.w3.org/2000/svg"><defs><clipPath id="satori_bc-id"><path x="0" y="0" width="215" height="70" d="M24,0 h191 a0,0 0 0 1 0,0 v70 a0,0 0 0 1 0,0 h-191 a24,24 0 0 1 -24,-24 v-22 a24,24 0 0 1 24,-24"/></clipPath></defs><clipPath id="satori_cp-id"><path x="0" y="0" width="215" height="70" d="M24,0 h191 a0,0 0 0 1 0,0 v70 a0,0 0 0 1 0,0 h-191 a24,24 0 0 1 -24,-24 v-22 a24,24 0 0 1 24,-24"/></clipPath><mask id="satori_om-id"><rect x="1" y="1" width="214" height="68" fill="#fff"/><path width="215" height="70" fill="none" stroke="#000" stroke-width="2" d="M7.029,7.029 A24,24 0 0 1 24,0 h191 A0,0 0 0 1 215,0"/><path width="215" height="70" fill="none" stroke="#000" stroke-width="2" d="M215,70 A0,0 0 0 1 215,70 h-191 a24,24 0 0 1 -24,-24 v-22 A24,24 0 0 1 7.029,7.029"/></mask><path x="0" y="0" width="215" height="70" fill="#08080c" d="M24,0 h191 a0,0 0 0 1 0,0 v70 a0,0 0 0 1 0,0 h-191 a24,24 0 0 1 -24,-24 v-22 a24,24 0 0 1 24,-24"/><path width="215" height="70" clip-path="url(#satori_bc-id)" fill="none" stroke="rgba(255,255,255,0.08)" stroke-width="2" d="M7.029,7.029 A24,24 0 0 1 24,0 h191 A0,0 0 0 1 215,0"/><path width="215" height="70" clip-path="url(#satori_bc-id)" fill="none" stroke="rgba(255,255,255,0.08)" stroke-width="2" d="M215,70 A0,0 0 0 1 215,70 h-191 a24,24 0 0 1 -24,-24 v-22 A24,24 0 0 1 7.029,7.029"/><defs><pattern id="satori_pattern_id-0_0" x="0" y="0" width="1" height="1" patternUnits="objectBoundingBox"><radialGradient id="satori_radial_id-0_0" spreadMethod="pad"><stop offset="0" stop-color="rgba(255, 255, 255, 0.05)"/><stop offset="0.7" stop-color="transparent"/><stop offset="1" stop-color="transparent"/></radialGradient><mask id="satori_mask_id-0_0"><rect x="0" y="0" width="214" height="68" fill="#fff"/></mask><rect x="0" y="0" width="214" height="68" fill="transparent"/><circle cx="107" cy="34" width="214" height="68" r="112.27199116431488" fill="url(#satori_radial_id-0_0)" mask="url(#satori_mask_id-0_0)"/></pattern></defs><mask id="satori_om-id-0"><rect x="1" y="1" width="214" height="68" fill="#fff" mask="url(#satori_om-id)"/></mask><rect x="1" y="1" width="214" height="68" fill="url(#satori_pattern_id-0_0)" clip-path="url(#satori_cp-id)" mask="url(#satori_om-id)"/><defs><pattern id="satori_pattern_id-1_0" x="0" y="0" width="1" height="1" patternUnits="objectBoundingBox"><linearGradient id="satori_biid-1_0" x1="0" y1="0" x2="0" y2="1" spreadMethod="pad"><stop offset="0%" stop-color="rgba(255, 255, 255, 0.08)"/><stop offset="100%" stop-color="rgba(255, 255, 255, 0.02)"/></linearGradient><rect x="0" y="0" width="170" height="38" fill="url(#satori_biid-1_0)"/></pattern><clipPath id="satori_bc-id-1" clip-path="url(#satori_cp-id)"><path x="23" y="16" width="170" height="38" d="M42,16 h132 a19,19 0 0 1 19,19 v0 a19,19 0 0 1 -19,19 h-132 a19,19 0 0 1 -19,-19 v0 a19,19 0 0 1 19,-19"/></clipPath></defs><mask id="satori_om-id-1"><rect x="24" y="17" width="168" height="36" fill="#fff" mask="url(#satori_om-id)"/><path width="170" height="38" fill="none" stroke="#000" stroke-width="2" d="M28.564999999999998,21.564999999999998 A19,19 0 0 1 42,16 h132 a19,19 0 0 1 19,19 v0 a19,19 0 0 1 -19,19 h-132 a19,19 0 0 1 -19,-19 v0 A19,19 0 0 1 28.564999999999998,21.564999999999998"/></mask><path x="23" y="16" width="170" height="38" fill="url(#satori_pattern_id-1_0)" d="M42,16 h132 a19,19 0 0 1 19,19 v0 a19,19 0 0 1 -19,19 h-132 a19,19 0 0 1 -19,-19 v0 a19,19 0 0 1 19,-19" clip-path="url(#satori_cp-id)" mask="url(#satori_om-id)"/><path width="170" height="38" clip-path="url(#satori_bc-id-1)" fill="none" stroke="rgba(255, 255, 255, 0.12)" stroke-width="2" d="M28.564999999999998,21.564999999999998 A19,19 0 0 1 42,16 h132 a19,19 0 0 1 19,19 v0 a19,19 0 0 1 -19,19 h-132 a19,19 0 0 1 -19,-19 v0 A19,19 0 0 1 28.564999999999998,21.564999999999998"/><clipPath id="satori_cp-id-1-0" clip-path="url(#satori_cp-id)"><rect x="74" y="27" width="16" height="16"/></clipPath><mask id="satori_om-id-1-0"><rect x="74" y="27" width="16" height="16" fill="#fff" mask="url(#satori_om-id)"/></mask><svg x="74" y="27" width="16" height="16" preserveAspectRatio="none" clip-path="url(#satori_cp-id-1-0)" mask="url(#satori_om-id-1-0)"><path d="M12 .297c-6.63 0-12 5.373-12 12 0 5.303 3.438 9.8 8.205 11.385.6.113.82-.258.82-.577 0-.285-.01-1.04-.015-2.04-3.338.724-4.042-1.61-4.042-1.61C4.422 18.07 3.633 17.7 3.633 17.7c-1.087-.744.084-.729.084-.729 1.205.084 1.838 1.236 1.838 1.236 1.07 1.835 2.809 1.305 3.495.998.108-.776.417-1.305.76-1.605-2.665-.3-5.466-1.332-5.466-5.93 0-1.31.465-2.38 1.235-3.22-.135-.303-.54-1.523.105-3.176 0 0 .005-.322 3.3 1.23.96-.267 1.98-.399 3-.405 1.02.006 2.04.138 3 .405 2.28-1.552 3.285-1.23 3.285-1.23.645 1.653.24 2.873.12 3.176.765.84 1.23 1.91 1.23 3.22 0 4.61-2.805 5.625-9.475 5.92.42.36.81 1.096.81 2.22 0 1.606-.015 2.896-.015 3.286 0 .315.21.69.825.57C20.565 22.092 24 17.592 24 12.297c0-6.627-5.373-12-12-12"></path></svg><mask id="satori_om-id-1-0-0"><rect x="74" y="27" width="0" height="16" fill="#fff" mask="url(#satori_om-id)"/></mask><mask id="satori_om-id-1-1"><rect x="98" y="27" width="44" height="16" fill="#fff" mask="url(#satori_om-id)"/></mask><g mask="url(#satori_om-id)" clip-path="url(#satori_cp-id)"><path fill="#f0f0f5" d="M103.0 40.1L103.0 40.1Q101.7 40.1 100.7 39.5Q99.7 39.0 99.2 37.9Q98.6 36.8 98.6 35.3L98.6 35.3Q98.6 33.7 99.2 32.7Q99.8 31.6 100.8 31.0Q101.8 30.4 103.0 30.4L103.0 30.4Q103.8 30.4 104.5 30.6Q105.2 30.9 105.7 31.3Q106.3 31.7 106.6 32.3Q106.9 32.9 107.0 33.6L107.0 33.6L105.1 33.6Q105.0 33.3 104.8 33.0Q104.6 32.7 104.3 32.5Q104.1 32.3 103.8 32.2Q103.4 32.1 103.0 32.1L103.0 32.1Q102.3 32.1 101.7 32.5Q101.2 32.9 100.9 33.6Q100.6 34.3 100.6 35.3Q100.6 36.3 100.9 37.0Q101.2 37.7 101.7 38.0Q102.3 38.4 103.1 38.4L103.1 38.4Q103.7 38.4 104.2 38.2Q104.7 37.9 105.0 37.4L105.0 37.4Q105.2 37.0 105.2 36.4L105.2 36.4L103.2 36.4L103.2 35.0L107.1 35.0L107.1 36.1Q107.1 37.4 106.6 38.3Q106.1 39.2 105.2 39.6Q104.2 40.1 103.0 40.1ZM110.3 40L108.4 40L108.4 32.9L110.3 32.9L110.3 40ZM109.4 32.0L109.4 32.0Q109.0 32.0 108.7 31.7Q108.3 31.4 108.3 31.0L108.3 31.0Q108.3 30.6 108.7 30.3Q109.0 30.0 109.4 30.0L109.4 30.0Q109.8 30.0 110.1 30.3Q110.4 30.6 110.4 31.0L110.4 31.0Q110.4 31.4 110.1 31.7Q109.8 32.0 109.4 32.0ZM114.0 32.9L115.4 32.9L115.4 34.4L114.0 34.4L114.0 37.9Q114.0 38.3 114.2 38.4Q114.3 38.6 114.7 38.6L114.7 38.6Q114.8 38.6 115.0 38.6Q115.2 38.5 115.3 38.5L115.3 38.5L115.6 39.9Q115.2 40.0 114.9 40.1Q114.6 40.1 114.3 40.1L114.3 40.1Q113.3 40.1 112.7 39.6Q112.1 39.1 112.1 38.1L112.1 38.1L112.1 34.4L111.1 34.4L111.1 32.9L112.1 32.9L112.1 31.2L114.0 31.2L114.0 32.9ZM118.4 40L116.5 40L116.5 30.5L118.4 30.5L118.4 34.4L122.6 34.4L122.6 30.5L124.5 30.5L124.5 40L122.6 40L122.6 36.0L118.4 36.0L118.4 40ZM128.5 40.1L128.5 40.1Q127.8 40.1 127.2 39.8Q126.6 39.4 126.3 38.8Q126.0 38.2 126.0 37.4L126.0 37.4L126.0 32.9L127.9 32.9L127.9 37.1Q127.9 37.7 128.3 38.1Q128.6 38.5 129.2 38.5L129.2 38.5Q129.6 38.5 129.9 38.3Q130.3 38.1 130.4 37.8Q130.6 37.5 130.6 37.0L130.6 37.0L130.6 32.9L132.5 32.9L132.5 40L130.7 40L130.7 38.5Q130.4 39.2 129.9 39.6L129.9 39.6Q129.4 40.1 128.5 40.1ZM138.0 40.1L138.0 40.1Q137.4 40.1 137.0 39.9Q136.6 39.7 136.4 39.4Q136.1 39.1 136.0 38.9L136.0 38.9L135.9 38.9L135.9 40L134.0 40L134.0 30.5L135.9 30.5L135.9 34.1L136.0 34.1Q136.1 33.8 136.3 33.5Q136.6 33.2 137.0 33.0Q137.4 32.8 138.0 32.8L138.0 32.8Q138.8 32.8 139.4 33.2Q140.1 33.6 140.5 34.4Q140.9 35.3 140.9 36.5L140.9 36.5Q140.9 37.6 140.5 38.5Q140.1 39.3 139.5 39.7Q138.8 40.1 138.0 40.1ZM137.4 38.6L137.4 38.6Q137.9 38.6 138.2 38.3Q138.6 38.0 138.7 37.6Q138.9 37.1 138.9 36.5L138.9 36.5Q138.9 35.8 138.7 35.4Q138.6 34.9 138.2 34.6Q137.9 34.3 137.4 34.3L137.4 34.3Q136.9 34.3 136.6 34.6Q136.2 34.9 136.0 35.3Q135.9 35.8 135.9 36.5L135.9 36.5Q135.9 37.1 136.0 37.6Q136.2 38.1 136.6 38.3Q136.9 38.6 137.4 38.6Z "/></g></svg>