<!-- Generated by readme-aura https://github.com/collectioneur/readme-aura -->
<svg width="215" height="70" viewBox="0 0 215 70" xmlns="http://www.w3.org/2000/svg"><defs><clipPath id="satori_bc-id"><rect x="0" y="0" width="215" height="70"/></clipPath></defs><clipPath id="satori_cp-id"><rect x="0" y="0" width="215" height="70"/></clipPath><mask id="satori_om-id"><rect x="1" y="1" width="214" height="68" fill="#fff"/><path width="215" height="70" fill="none" stroke="#000" stroke-width="2" d="M0,0 A0,0 0 0 1 0,0 h215 A0,0 0 0 1 215,0"/><path width="215" height="70" fill="none" stroke="#000" stroke-width="2" d="M215,70 A0,0 0 0 1 215,70 h-215 a0,0 0 0 1 0,0 v-70 A0,0 0 0 1 0,0"/></mask><rect x="0" y="0" width="215" height="70" fill="#08080c"/><path width="215" height="70" clip-path="url(#satori_bc-id)" fill="none" stroke="rgba(255,255,255,0.08)" stroke-width="2" d="M0,0 A0,0 0 0 1 0,0 h215 A0,0 0 0 1 215,0"/><path width="215" height="70" clip-path="url(#satori_bc-id)" fill="none" stroke="rgba(255,255,255,0.08)" stroke-width="2" d="M215,70 A0,0 0 0 1 215,70 h-215 a0,0 0 0 1 0,0 v-70 A0,0 0 0 1 0,0"/><defs><pattern id="satori_pattern_id-0_0" x="0" y="0" width="1" height="1" patternUnits="objectBoundingBox"><radialGradient id="satori_radial_id-0_0" spreadMethod="pad"><stop offset="0" stop-color="rgba(0, 119, 181, 0.12)"/><stop offset="0.7" stop-color="transparent"/><stop offset="1" stop-color="transparent"/></radialGradient><mask id="satori_mask_id-0_0"><rect x="0" y="0" width="214" height="68" fill="#fff"/></mask><rect x="0" y="0" width="214" height="68" fill="transparent"/><circle cx="107" cy="34" width="214" height="68" r="112.27199116431488" fill="url(#satori_radial_id-0_0)" mask="url(#satori_mask_id-0_0)"/></pattern></defs><mask id="satori_om-id-0"><rect x="1" y="1" width="214" height="68" fill="#fff" mask="url(#satori_om-id)"/></mask><rect x="1" y="1" width="214" height="68" fill="url(#satori_pattern_id-0_0)" clip-path="url(#satori_cp-id)" mask="url(#satori_om-id)"/><defs><pattern id="satori_pattern_id-1_0" x="0" y="0" width="1" height="1" patternUnits="objectBoundingBox"><linearGradient id="satori_biid-1_0" x1="0" y1="0" x2="0" y2="1" spreadMethod="pad"><stop offset="0%" stop-color="rgba(255, 255, 255, 0.08)"/><stop offset="100%" stop-color="rgba(255, 255, 255, 0.02)"/></linearGradient><rect x="0" y="0" width="170" height="38" fill="url(#satori_biid-1_0)"/></pattern><clipPath id="satori_bc-id-1" clip-path="url(#satori_cp-id)"><path x="23" y="16" width="170" height="38" d="M42,16 h132 a19,19 0 0 1 19,19 v0 a19,19 0 0 1 -19,19 h-132 a19,19 0 0 1 -19,-19 v0 a19,19 0 0 1 19,-19"/></clipPath></defs><mask id="satori_om-id-1"><rect x="24" y="17" width="168" height="36" fill="#fff" mask="url(#satori_om-id)"/><path width="170" height="38" fill="none" stroke="#000" stroke-width="2" d="M28.564999999999998,21.564999999999998 A19,19 0 0 1 42,16 h132 a19,19 0 0 1 19,19 v0 a19,19 0 0 1 -19,19 h-132 a19,19 0 0 1 -19,-19 v0 A19,19 0 0 1 28.564999999999998,21.564999999999998"/></mask><path x="23" y="16" width="170" height="38" fill="url(#satori_pattern_id-1_0)" d="M42,16 h132 a19,19 0 0 1 19,19 v0 a19,19 0 0 1 -19,19 h-132 a19,19 0 0 1 -19,-19 v0 a19,19 0 0 1 19,-19" clip-path="url(#satori_cp-id)" mask="url(#satori_om-id)"/><path width="170" height="38" clip-path="url(#satori_bc-id-1)" fill="none" stroke="rgba(255, 255, 255, 0.12)" stroke-width="2" d="M28.564999999999998,21.564999999999998 A19,19 0 0 1 42,16 h132 a19,19 0 0 1 19,19 v0 a19,19 0 0 1 -19,19 h-132 a19,19 0 0 1 -19,-19 v0 A19,19 0 0 1 28.564999999999998,21.564999999999998"/><clipPath id="satori_cp-id-1-0" clip-path="url(#satori_cp-id)"><rect x="69" y="27" width="16" height="16"/></clipPath><mask id="satori_om-id-1-0"><rect x="69" y="27" width="16" height="16" fill="#fff" mask="url(#satori_om-id)"/></mask><svg x="69" y="27" width="16" height="16" preserveAspectRatio="none" clip-path="url(#satori_cp-id-1-0)" mask="url(#satori_om-id-1-0)"><path d="M20.447 20.452h-3.554v-5.569c0-1.328-.027-3.037-1.852-3.037-1.853 0-2.136 1.445-2.136 2.939v5.667H9.351V9h3.414v1.561h.046c.477-.9 1.637-1.85 3.37-1.85 3.601 0 4.267 2.37 4.267 5.45v6.286zM5.337 7.433c-1.144 0-2.063-.9-2.063-2.065 0-1.138.92-2.063 2.063-2.063 1.14 0 2.064.925 2.064 2.063 0 1.139-.925 2.065-2.064 2.065zm1.782 13.019H3.555V9h3.564v11.452zM22.225 0H1.771C.792 0 0 .774 0 1.729v20.542C0 23.227.792 24 1.771 24h20.451C23.2 24 24 23.227 24 22.271V1.729C24 .774 23.2 0 22.225 0z"></path></svg><mask id="satori_om-id-1-0-0"><rect x="69" y="27" width="0" height="16" fill="#fff" mask="url(#satori_om-id)"/></mask><mask id="satori_om-id-1-1"><rect x="93" y="27" width="54" height="16" fill="#fff" mask="url(#satori_om-id)"/></mask><g mask="url(#satori_om-id)" clip-path="url(#satori_cp-id)"><path fill="#f0f0f5" d="M99.9 40L93.9 40L93.9 30.5L95.8 30.5L95.8 38.4L99.9 38.4L99.9 40ZM102.9 40L101.0 40L101.0 32.9L102.9 32.9L102.9 40ZM102.0 32.0L102.0 32.0Q101.6 32.0 101.2 31.7Q100.9 31.4 100.9 31.0L100.9 31.0Q100.9 30.6 101.2 30.3Q101.6 30.0 102.0 30.0L102.0 30.0Q102.4 30.0 102.7 30.3Q103.0 30.6 103.0 31.0L103.0 31.0Q103.0 31.4 102.7 31.7Q102.4 32.0 102.0 32.0ZM106.3 35.9L106.3 35.9L106.3 40L104.4 40L104.4 32.9L106.2 32.9L106.2 34.4Q106.5 33.7 107.0 33.3L107.0 33.3Q107.6 32.8 108.5 32.8L108.5 32.8Q109.2 32.8 109.7 33.1Q110.3 33.5 110.6 34.1Q110.9 34.7 110.9 35.5L110.9 35.5L110.9 40L109.0 40L109.0 35.8Q109.0 35.2 108.7 34.8Q108.3 34.4 107.7 34.4L107.7 34.4Q107.3 34.4 107.0 34.6Q106.7 34.8 106.5 35.1Q106.3 35.4 106.3 35.9ZM114.3 40L112.4 40L112.4 30.5L114.3 30.5L114.3 35.6L114.4 35.6L116.7 32.9L118.9 32.9L116.3 36.0L119.1 40L116.8 40L114.8 37.1L114.3 37.7L114.3 40ZM123.0 40.1L123.0 40.1Q121.9 40.1 121.1 39.7Q120.3 39.3 119.9 38.4Q119.5 37.6 119.5 36.5L119.5 36.5Q119.5 35.4 119.9 34.6Q120.3 33.7 121.1 33.3Q121.9 32.8 122.9 32.8L122.9 32.8Q123.6 32.8 124.2 33.0Q124.8 33.3 125.3 33.7Q125.7 34.2 126.0 34.8Q126.2 35.5 126.2 36.4L126.2 36.4L126.2 36.9L121.4 36.9Q121.4 37.5 121.6 37.9L121.6 37.9Q121.8 38.3 122.2 38.5Q122.5 38.7 123.0 38.7L123.0 38.7Q123.4 38.7 123.6 38.6Q123.9 38.5 124.1 38.3Q124.3 38.1 124.4 37.9L124.4 37.9L126.1 38.2Q126.0 38.8 125.5 39.2Q125.1 39.7 124.5 39.9Q123.8 40.1 123.0 40.1ZM121.4 35.8L121.4 35.8L124.4 35.8Q124.4 35.4 124.3 35.1L124.3 35.1Q124.1 34.7 123.8 34.5Q123.4 34.2 122.9 34.2L122.9 34.2Q122.4 34.2 122.1 34.5Q121.7 34.7 121.6 35.1L121.6 35.1Q121.4 35.4 121.4 35.8ZM130.0 40.1L130.0 40.1Q129.2 40.1 128.5 39.7Q127.9 39.3 127.5 38.5Q127.1 37.6 127.1 36.5L127.1 36.5Q127.1 35.3 127.5 34.4Q127.9 33.6 128.6 33.2Q129.2 32.8 130.0 32.8L130.0 32.8Q130.6 32.8 131.0 33.0Q131.4 33.2 131.6 33.5Q131.9 33.8 132.0 34.1L132.0 34.1L132.1 34.1L132.1 30.5L134.0 30.5L134.0 40L132.1 40L132.1 38.9L132.0 38.9Q131.9 39.1 131.6 39.4Q131.4 39.7 131.0 39.9Q130.6 40.1 130.0 40.1ZM130.6 38.6L130.6 38.6Q131.1 38.6 131.4 38.3Q131.8 38.1 131.9 37.6Q132.1 37.1 132.1 36.5L132.1 36.5Q132.1 35.8 131.9 35.3Q131.8 34.9 131.4 34.6Q131.1 34.3 130.6 34.3L130.6 34.3Q130.1 34.3 129.8 34.6Q129.4 34.9 129.2 35.4Q129.1 35.8 129.1 36.5L129.1 36.5Q129.1 37.1 129.2 37.6Q129.4 38.0 129.8 38.3Q130.1 38.6 130.6 38.6ZM135.5 30.5L137.5 30.5L137.5 40L135.5 40L135.5 30.5ZM140.9 35.9L140.9 35.9L140.9 40L139.0 40L139.0 32.9L140.8 32.9L140.8 34.4Q141.1 33.7 141.6 33.3L141.6 33.3Q142.1 32.8 143.0 32.8L143.0 32.8Q143.8 32.8 144.3 33.1Q144.9 33.5 145.2 34.1Q145.5 34.7 145.5 35.5L145.5 35.5L145.5 40L143.6 40L143.6 35.8Q143.6 35.2 143.2 34.8Q142.9 34.4 142.3 34.4L142.3 34.4Q141.9 34.4 141.6 34.6Q141.3 34.8 141.1 35.1Q140.9 35.4 140.9 35.9Z "/></g></svg>